<?xml version="1.0" encoding="UTF-8"?>
<svg width="91px" height="22px" viewBox="0 0 91 22" version="1.1" xmlns="http://www.w3.org/2000/svg" xmlns:xlink="http://www.w3.org/1999/xlink">
    <!-- Generator: Sketch 46.2 (44496) - http://www.bohemiancoding.com/sketch -->
    <title>logo</title>
    <desc>Created with Sketch.</desc>
    <defs></defs>
    <g id="ver-0.2" stroke="none" stroke-width="1" fill="none" fill-rule="evenodd">
        <g id="SRP_Propworth" transform="translate(-1014.000000, -523.000000)">
            <g id="Group-10" transform="translate(990.000000, 305.000000)">
                <g id="logo" transform="translate(24.000000, 218.000000)">
                    <g id="Group-2">
                        <ellipse id="Oval" fill="#EDEDED" cx="11.8452561" cy="20.5231767" rx="8.03068209" ry="1"></ellipse>
                        <g id="Group" transform="translate(0.100384, 0.000000)">
                            <path d="M20.3979325,9.33409863 C20.5585462,9.98531482 20.638853,10.6759986 20.638853,11.3864163 C20.638853,16.2804046 16.6235119,20.266637 11.6846424,20.266637 C6.74577296,20.266637 2.73043191,16.3001384 2.73043191,11.3864163 C2.73043191,10.6759986 2.81073873,10.0050486 2.97135237,9.33409863 L0.140536937,9.33409863 L0.140536937,8.82101922 L11.6645657,0.118402943 L16.4227449,3.82836181 L16.4227449,2.19045444 L18.4103387,2.19045444 L18.4504921,5.150528 L23.3692849,8.80128539 L23.3692849,9.31436481 L20.3979325,9.31436481 L20.3979325,9.33409863 Z M11.785026,1.48003678 C11.3433385,1.48003678 10.9819578,1.83524561 10.9819578,2.26938973 C10.9819578,2.70353385 11.3433385,3.05874268 11.785026,3.05874268 C12.2267135,3.05874268 12.5880942,2.70353385 12.5880942,2.26938973 C12.5880942,1.83524561 12.2267135,1.48003678 11.785026,1.48003678 L11.785026,1.48003678 Z" id="Shape" fill="#E64036"></path>
                            <path d="M11.7448726,3.94676475 C15.8806738,3.94676475 19.2334836,7.26204714 19.2334836,11.3666825 C19.2334836,15.451584 15.8806738,18.7866002 11.7448726,18.7866002 C7.60907128,18.7866002 4.25626151,15.4713178 4.25626151,11.3666825 C4.27633821,7.28178096 7.62914799,3.94676475 11.7448726,3.94676475 L11.7448726,3.94676475 Z" id="Shape" fill="#FFFFFF"></path>
                            <path d="M8.85382701,7.00550743 L8.85382701,7.57778832 C8.85382701,7.61725597 8.87390371,7.63698979 8.89398042,7.63698979 L9.93796909,7.63698979 C10.2993498,7.63698979 10.6808072,7.75539273 11.1224947,7.99219862 C11.443722,8.2290045 11.644489,8.54474568 11.7448726,8.93942216 L8.91405712,8.93942216 C8.89398042,8.93942216 8.87390371,8.95915598 8.87390371,8.99862363 L8.87390371,9.57090452 C8.87390371,9.61037217 8.89398042,9.63010599 8.91405712,9.63010599 L11.7649493,9.63010599 L11.7649493,9.70904129 C11.7649493,9.78797658 11.7649493,9.8866457 11.7448726,10.0050486 C11.4838754,10.9917398 10.7008839,11.4850854 9.39589805,11.4850854 L9.03451735,11.4850854 L9.03451735,11.5048192 C11.3834919,14.7411663 12.5680175,16.3593399 12.5880942,16.3593399 L13.7525431,16.3593399 L13.7525431,16.3001384 L10.7008839,12.1165678 C10.7410373,12.1165678 10.7410373,12.1165678 10.7410373,12.096834 C11.0221112,12.096834 11.4838754,11.8994957 12.1464067,11.5048192 C12.8892448,10.8930707 13.2506255,10.2813222 13.2506255,9.63010599 L14.6158414,9.63010599 C14.6559948,9.63010599 14.6559948,9.61037217 14.6559948,9.57090452 L14.6559948,8.99862363 C14.6559948,8.97888981 14.6359181,8.95915598 14.6158414,8.93942216 L13.210472,8.93942216 L13.1903953,8.76181775 C13.0297817,8.2290045 12.7888612,7.87379568 12.4877107,7.69619126 L12.4877107,7.63698979 L14.6359181,7.63698979 C14.6760715,7.63698979 14.6760715,7.61725597 14.6760715,7.57778832 L14.6760715,7.00550743 C14.6760715,6.98577361 14.6559948,6.96603978 14.6359181,6.94630596 L8.93413383,6.94630596 C8.87390371,6.96603978 8.85382701,6.98577361 8.85382701,7.00550743 L8.85382701,7.00550743 L8.85382701,7.00550743 Z" id="Shape" fill="#E64036"></path>
                        </g>
                    </g>
                    <path d="M31.9672637,10.1129868 L31.9672637,13.4508653 L30.4723404,13.4508653 L30.4723404,4.64660615 L33.9051273,4.64660615 C34.8935452,4.64660615 35.6676575,4.89754922 36.2274876,5.39944287 C36.7873176,5.90133653 37.0672284,6.5614478 37.0672284,7.3797965 C37.0672284,8.20620774 36.7873176,8.86833462 36.2274876,9.366197 C35.6676575,9.86405938 34.8935452,10.1129868 33.9051273,10.1129868 L31.9672637,10.1129868 Z M31.9672637,8.93384499 L33.9051273,8.93384499 C34.4588054,8.93384499 34.875083,8.78872129 35.1539727,8.49846953 C35.4328624,8.20821778 35.5723051,7.83936171 35.5723051,7.39189026 C35.5723051,6.94441881 35.4328624,6.57153152 35.1539727,6.27321722 C34.875083,5.97490292 34.4588054,5.825748 33.9051273,5.825748 L31.9672637,5.825748 L31.9672637,8.93384499 Z M41.6565815,8.23240676 L41.0167789,8.20821923 C40.7255853,8.20821923 40.4825858,8.26868744 40.2877731,8.38962567 C40.0929605,8.5105639 39.9422392,8.68189049 39.835605,8.90361058 L39.835605,13.4508653 L38.3406816,13.4508653 L38.3406816,6.90813975 L39.706414,6.90813975 L39.8048452,7.85750012 C39.9729993,7.52290435 40.1893406,7.26087544 40.4538757,7.07140555 C40.7184108,6.88193566 41.0229292,6.78720213 41.36744,6.78720213 C41.457669,6.78720213 41.5417447,6.79425675 41.6196698,6.80836621 C41.6975949,6.82247567 41.7693669,6.83960833 41.834988,6.8597647 L41.6565815,8.23240676 Z M42.4870944,10.1190337 C42.4870944,9.14346533 42.7588028,8.34427718 43.3022275,7.72144529 C43.8456523,7.0986134 44.5890052,6.78720213 45.5323086,6.78720213 C46.4879159,6.78720213 47.2374207,7.0986134 47.7808455,7.72144529 C48.3242703,8.34427718 48.5959786,9.14346533 48.5959786,10.1190337 L48.5959786,10.2460182 C48.5959786,11.2296492 48.3242703,12.0308529 47.7808455,12.6496535 C47.2374207,13.2684542 46.4920172,13.5778498 45.5446125,13.5778498 C44.5931065,13.5778498 43.8456523,13.2674464 43.3022275,12.6466301 C42.7588028,12.0258139 42.4870944,11.2256179 42.4870944,10.2460182 L42.4870944,10.1190337 Z M43.9820178,10.2460182 C43.9820178,10.8869909 44.1091567,11.4070174 44.3634385,11.8061136 C44.6177203,12.2052098 45.011441,12.4047549 45.5446125,12.4047549 C46.06548,12.4047549 46.4561248,12.204202 46.7165585,11.8030902 C46.9769923,11.4019784 47.1072072,10.8829596 47.1072072,10.2460182 L47.1072072,10.1190337 C47.1072072,9.4941862 46.9769923,8.97919862 46.7165585,8.57405555 C46.4561248,8.16891248 46.0613788,7.96634398 45.5323086,7.96634398 C45.0114411,7.96634398 44.6228469,8.16891248 44.3665145,8.57405555 C44.1101821,8.97919862 43.9820178,9.4941862 43.9820178,10.1190337 L43.9820178,10.2460182 Z M55.732238,10.3971903 C55.732238,11.348571 55.5046182,12.1165173 55.0493718,12.701052 C54.5941254,13.2855868 53.9604811,13.5778498 53.14842,13.5778498 C52.7710986,13.5778498 52.4368461,13.5113348 52.1456525,13.3783027 C51.8544588,13.2452707 51.6042821,13.0497568 51.3951148,12.7917553 L51.3951148,15.9663679 L49.9001915,15.9663679 L49.9001915,6.90813975 L51.1613408,6.90813975 L51.3089876,7.73051561 C51.5222562,7.42413876 51.7796101,7.19032835 52.081057,7.02907738 C52.382504,6.86782641 52.7321362,6.78720213 53.1299641,6.78720213 C53.9502279,6.78720213 54.5889988,7.10667583 55.0462958,7.74563281 C55.5035929,8.3845898 55.732238,9.2261057 55.732238,10.2702058 L55.732238,10.3971903 Z M54.2434667,10.2702058 C54.2434667,9.60101421 54.1153024,9.05377693 53.8589699,8.62847748 C53.6026375,8.20317804 53.2201952,7.99053151 52.7116317,7.99053151 C52.3999314,7.99053151 52.1354003,8.05603873 51.9180304,8.18705515 C51.7006605,8.31807156 51.526357,8.50048399 51.3951148,8.73429791 L51.3951148,11.6912229 C51.526357,11.9210055 51.7006605,12.0973711 51.9180304,12.220325 C52.1354003,12.3432788 52.4040327,12.4047549 52.7239356,12.4047549 C53.2324991,12.4047549 53.6128908,12.2203268 53.8651219,11.8514652 C54.117353,11.4826036 54.2434667,10.9978501 54.2434667,10.3971903 L54.2434667,10.2702058 Z M64.098887,10.9958315 L64.1357987,10.9958315 L65.4523155,4.64660615 L67.0272142,4.64660615 L64.8986402,13.4508653 L63.5390598,13.4508653 L61.748843,7.18629629 L61.7119313,7.18629629 L59.9155625,13.4508653 L58.5498301,13.4508653 L56.4274081,4.64660615 L57.9961548,4.64660615 L59.3249755,10.9897846 L59.3618872,10.9897846 L61.0659768,4.64660615 L62.3824936,4.64660615 L64.098887,10.9958315 Z M67.7162323,10.1190337 C67.7162323,9.14346533 67.9879406,8.34427718 68.5313654,7.72144529 C69.0747902,7.0986134 69.8181431,6.78720213 70.7614465,6.78720213 C71.7170538,6.78720213 72.4665586,7.0986134 73.0099834,7.72144529 C73.5534081,8.34427718 73.8251165,9.14346533 73.8251165,10.1190337 L73.8251165,10.2460182 C73.8251165,11.2296492 73.5534081,12.0308529 73.0099834,12.6496535 C72.4665586,13.2684542 71.7211551,13.5778498 70.7737504,13.5778498 C69.8222443,13.5778498 69.0747902,13.2674464 68.5313654,12.6466301 C67.9879406,12.0258139 67.7162323,11.2256179 67.7162323,10.2460182 L67.7162323,10.1190337 Z M69.2111556,10.2460182 C69.2111556,10.8869909 69.3382946,11.4070174 69.5925764,11.8061136 C69.8468582,12.2052098 70.2405789,12.4047549 70.7737504,12.4047549 C71.2946179,12.4047549 71.6852627,12.204202 71.9456964,11.8030902 C72.2061302,11.4019784 72.3363451,10.8829596 72.3363451,10.2460182 L72.3363451,10.1190337 C72.3363451,9.4941862 72.2061302,8.97919862 71.9456964,8.57405555 C71.6852627,8.16891248 71.2905166,7.96634398 70.7614465,7.96634398 C70.2405789,7.96634398 69.8519848,8.16891248 69.5956524,8.57405555 C69.3393199,8.97919862 69.2111556,9.4941862 69.2111556,10.1190337 L69.2111556,10.2460182 Z M78.4452292,8.23240676 L77.8054267,8.20821923 C77.514233,8.20821923 77.2712335,8.26868744 77.0764209,8.38962567 C76.8816082,8.5105639 76.730887,8.68189049 76.6242527,8.90361058 L76.6242527,13.4508653 L75.1293294,13.4508653 L75.1293294,6.90813975 L76.4950618,6.90813975 L76.593493,7.85750012 C76.761647,7.52290435 76.9779884,7.26087544 77.2425235,7.07140555 C77.5070585,6.88193566 77.8115769,6.78720213 78.1560877,6.78720213 C78.2463167,6.78720213 78.3303925,6.79425675 78.4083176,6.80836621 C78.4862426,6.82247567 78.5580146,6.83960833 78.6236357,6.8597647 L78.4452292,8.23240676 Z M81.4658356,5.31780997 L81.4658356,6.90813975 L82.6593135,6.90813975 L82.6593135,7.99657839 L81.4658356,7.99657839 L81.4658356,11.6126134 C81.4658356,11.8827088 81.5253038,12.0751992 81.6442421,12.1900906 C81.7631803,12.3049819 81.9210788,12.3624267 82.1179421,12.3624267 C82.1999685,12.3624267 82.279943,12.3553721 82.357868,12.3412626 C82.4357931,12.3271531 82.5096157,12.3080049 82.5793382,12.2838172 L82.7392888,13.3601621 C82.6121479,13.4286938 82.4614267,13.4821073 82.2871206,13.5204044 C82.1128146,13.5587016 81.9313339,13.5778498 81.7426733,13.5778498 C81.1930965,13.5778498 80.7614392,13.4196247 80.4476882,13.1031696 C80.1339373,12.7867146 79.9770642,12.2898675 79.9770642,11.6126134 L79.9770642,7.99657839 L78.9619929,7.99657839 L78.9619929,6.90813975 L79.9770642,6.90813975 L79.9770642,5.31780997 L81.4658356,5.31780997 Z M85.3415627,7.75470314 C85.5630339,7.44832629 85.8326916,7.21048467 86.1505438,7.04117114 C86.4683961,6.87185762 86.8200789,6.78720213 87.2056029,6.78720213 C87.9110298,6.78720213 88.4616236,7.00589548 88.8574009,7.44328875 C89.2531782,7.88068202 89.4510638,8.55490254 89.4510638,9.46597054 L89.4510638,13.4508653 L87.9561405,13.4508653 L87.9561405,9.45387678 C87.9561405,8.94190494 87.8546344,8.57002546 87.6516191,8.33822718 C87.4486038,8.10642891 87.1461361,7.99053151 86.7442068,7.99053151 C86.4243039,7.99053151 86.147469,8.0459607 85.9136939,8.15682074 C85.6799187,8.26768079 85.4892102,8.42187472 85.3415627,8.61940716 L85.3415627,13.4508653 L83.8466394,13.4508653 L83.8466394,4.0177305 L85.3415627,4.0177305 L85.3415627,7.75470314 Z" id="PropWorth" fill="#333333"></path>
                    <g id="Group-29" transform="translate(53.607183, 15.327317)">
                        <path d="M2.510351,2.96528724 C2.510351,3.34440823 2.41557479,3.64954007 2.22601953,3.8806919 C2.03646427,4.11184373 1.7692897,4.22741791 1.42448782,4.22741791 C1.24951373,4.22741791 1.09770025,4.19382542 0.969042833,4.12663942 C0.840385414,4.05945342 0.733172507,3.96187522 0.647400894,3.83390188 L0.572779964,4.17702867 L0.065872269,4.17702867 L0.065872269,0.433827426 L0.691144198,0.433827426 L0.691144198,1.8759197 C0.77691581,1.7655427 0.879840202,1.68076164 0.999920459,1.62157397 C1.12000072,1.56238631 1.25980635,1.53279292 1.41934155,1.53279292 C1.76757429,1.53279292 2.03646427,1.65916469 2.22601953,1.91191202 C2.41557479,2.16465935 2.510351,2.49898466 2.510351,2.91489799 L2.510351,2.96528724 Z M1.88507907,2.91489799 C1.88507907,2.64455433 1.83533229,2.42620311 1.73583721,2.25983777 C1.63634214,2.09347244 1.47852474,2.01029102 1.26238028,2.01029102 C1.12343027,2.01029102 1.00721148,2.03908459 0.91372042,2.09667259 C0.820229362,2.15426059 0.74603803,2.23424272 0.691144198,2.33662139 L0.691144198,3.42598893 C0.744322598,3.52996726 0.818085078,3.6103493 0.912433852,3.66713747 C1.00678263,3.72392564 1.12514568,3.75231929 1.26752655,3.75231929 C1.48367102,3.75231929 1.64063071,3.68153511 1.73841035,3.53996461 C1.83618999,3.39839411 1.88507907,3.2068369 1.88507907,2.96528724 L1.88507907,2.91489799 Z M3.97446511,3.13565088 L4.03622036,3.39479559 L4.05165917,3.39479559 L4.66149229,1.58078268 L5.34594633,1.58078268 L4.19318163,4.57054469 C4.11941804,4.75130702 4.01563595,4.90567254 3.88183223,5.03364587 C3.74802851,5.1616192 3.55847609,5.22560491 3.31316928,5.22560491 C3.26170631,5.22560491 3.20638445,5.22080598 3.14720204,5.21120798 C3.08801963,5.20160998 3.03098236,5.19041248 2.97608853,5.17761515 L3.04556319,4.72651141 C3.06786381,4.72811108 3.09959883,4.73051054 3.1407692,4.73370988 C3.18193958,4.73690921 3.21281689,4.73850885 3.23340208,4.73850885 C3.34662061,4.73850885 3.4371083,4.70251689 3.50486788,4.63053189 C3.57262745,4.55854689 3.62794931,4.47536548 3.67083512,4.38098514 L3.77376054,4.14583532 L2.76251828,1.58078268 L3.44439919,1.58078268 L3.97446511,3.13565088 Z" id="by" fill="#666666"></path>
                        <g id="Magicbricks--Logo" transform="translate(6.323738, 0.000000)">
                            <path d="M9.63242391,1.73851599 C9.37582088,1.73851599 9.15624916,1.82356376 8.97388916,1.99361723 C8.79148405,2.16371277 8.7002815,2.36846674 8.7002815,2.60775296 C8.7002815,2.84703918 8.79148405,3.05179315 8.97388916,3.22188869 C9.15624916,3.39198422 9.37582088,3.47703199 9.63242391,3.47703199 C9.88902694,3.47703199 10.1085987,3.39198422 10.2910038,3.22188869 C10.4733638,3.05179315 10.5646114,2.84708125 10.5646114,2.60775296 C10.5646114,2.36842468 10.4734089,2.16375483 10.2910038,1.99365929 C10.1085987,1.82356376 9.88907204,1.73851599 9.63242391,1.73851599 L9.63242391,1.73851599 Z M28.9727326,2.83231776 C28.5675984,2.70175976 28.2993131,2.59492429 28.1656667,2.51088599 C28.0321104,2.4268477 27.9429376,2.27946522 27.8995465,2.06785527 C27.85602,1.85620326 27.914341,1.64951447 28.0734267,1.44783097 C28.233595,1.24606335 28.5061652,1.14023734 28.8920846,1.13132037 C29.2781394,1.12341286 29.6726287,1.22928092 30.0745154,1.44879838 L29.7913905,1.94129309 C29.4562595,1.75639201 29.1710147,1.66242726 28.9356111,1.66040833 C28.7001172,1.65843145 28.5675533,1.72669679 28.5379643,1.86512024 C28.5082852,2.00257627 28.5919552,2.11530031 28.79141,2.20131549 C28.9896921,2.28636325 29.2028138,2.3615687 29.4297377,2.42386135 C29.6566615,2.48716347 29.8210697,2.56232685 29.9239545,2.6503189 C30.0258018,2.73835302 30.0872801,2.86689208 30.1074421,3.03694555 C30.1265667,3.20708314 30.1032022,3.36233107 30.0352739,3.50475032 C29.9685183,3.64616011 29.8549436,3.7667496 29.6969855,3.86567757 C29.5378997,3.96359607 29.3173808,4.0239539 29.0352032,4.04670902 C28.7520783,4.06845466 28.3735111,3.97642473 27.8994563,3.76977801 L28.1794237,3.27433902 C28.5187496,3.40981817 28.800837,3.48695843 29.025686,3.50571773 C29.2504899,3.52552856 29.3989309,3.45040724 29.4710991,3.28127912 C29.5443949,3.11215099 29.3778668,2.96274957 28.9727326,2.83231776 L28.9727326,2.83231776 Z M25.1061864,0 L25.7275996,0 L25.7275996,2.65128631 L26.8898684,1.1590387 L27.6322535,1.1590387 L26.74039,2.33288295 L27.6852972,4.05655134 L26.9704712,4.05655134 L26.3182963,2.81053005 L25.7275996,3.58676968 L25.7275996,4.05655134 L25.1061864,4.05655134 L25.1061864,0 L25.1061864,0 Z M24.2301547,3.05675638 L24.7646504,3.35547509 C24.6978948,3.454361 24.6193668,3.54533939 24.5281192,3.63038716 C24.22384,3.91417414 23.8568197,4.0565934 23.4284112,4.0565934 C23.0000028,4.0565934 22.6330727,3.91518361 22.3297858,3.63236404 C22.0264539,3.3495024 21.8748556,3.00733446 21.8748556,2.60783708 C21.8748556,2.20833971 22.0264539,1.86713917 22.3297858,1.58427754 C22.6331178,1.30049055 23.0000028,1.15908076 23.4284112,1.15908076 C23.8568197,1.15908076 24.22384,1.30049055 24.5281192,1.58234272 C24.6193668,1.6693253 24.6978948,1.76232264 24.7646504,1.86019907 L24.2301547,2.15887573 C24.1909584,2.10053683 24.1431921,2.04615168 24.0869911,1.99370135 C23.9045409,1.82364788 23.6850143,1.73860012 23.4283661,1.73860012 C23.171718,1.73860012 22.9521914,1.82364788 22.7698314,1.99370135 C22.5873812,2.16379689 22.4962237,2.36855086 22.4962237,2.60783708 C22.4962237,2.84712331 22.5873812,3.05187728 22.7698314,3.22197281 C22.9521914,3.39206834 23.171718,3.47711611 23.4283661,3.47711611 C23.6850143,3.47711611 23.9045409,3.39206834 24.0869911,3.22197281 C24.1432372,3.17048989 24.1909584,3.11513734 24.2301547,3.05675638 L24.2301547,3.05675638 Z M20.942623,4.05655134 L20.942623,1.1590387 L21.5640362,1.1590387 L21.5640362,4.05655134 L20.942623,4.05655134 L20.942623,4.05655134 Z M20.942623,0.57947729 L20.942623,0 L21.5640362,0 L21.5640362,0.57947729 L20.942623,0.57947729 L20.942623,0.57947729 Z M20.6318938,1.73851599 C20.3752908,1.73851599 20.155719,1.82356376 19.973359,1.99361723 C19.7909088,2.16371277 19.6997514,2.36846674 19.6997514,2.60775296 L19.6997514,4.05650928 L19.0783381,4.05650928 L19.0783381,1.15899664 L19.6997514,1.15899664 L19.6997514,1.44576997 C19.9669541,1.2548962 20.2777284,1.15899664 20.6318938,1.15899664 L20.6318938,1.73851599 L20.6318938,1.73851599 Z M17.2139631,1.73851599 C16.9573601,1.73851599 16.7377884,1.82356376 16.5554284,1.99361723 C16.3729782,2.16371277 16.2817305,2.36846674 16.2817305,2.60775296 C16.2817305,2.84703918 16.3729782,3.05179315 16.5554284,3.22188869 C16.7377884,3.39198422 16.957315,3.47703199 17.2139631,3.47703199 C17.4706112,3.47703199 17.6901379,3.39198422 17.8724979,3.22188869 C18.0549481,3.05179315 18.1461055,2.84708125 18.1461055,2.60775296 C18.1461055,2.36842468 18.054903,2.16375483 17.8724528,1.99365929 C17.6900928,1.82356376 17.4705661,1.73851599 17.2139631,1.73851599 L17.2139631,1.73851599 Z M16.2817305,4.05655134 L15.6603173,4.05655134 L15.6603173,0 L16.2817305,0 L16.2817305,1.44581203 C16.5490234,1.25493826 16.8597075,1.1590387 17.2139631,1.1590387 C17.6423715,1.1590387 18.0082192,1.30044849 18.3115511,1.58423548 C18.6159205,1.86709711 18.7675188,2.20829765 18.7675188,2.60779502 C18.7675188,3.00729239 18.6159205,3.3495024 18.3115511,3.63232197 C18.0082192,3.91514155 17.6423715,4.05655134 17.2139631,4.05655134 C16.8597075,4.05655134 16.5490234,3.96060972 16.2817305,3.76977801 L16.2817305,4.05655134 L16.2817305,4.05655134 Z M14.7843307,3.05675638 L15.3188264,3.35547509 C15.2520708,3.454361 15.1735428,3.54533939 15.0823402,3.63038716 C14.7779258,3.91417414 14.4109956,4.05655134 13.9825872,4.05655134 C13.5541337,4.05655134 13.1872035,3.91514155 12.8839167,3.63232197 C12.5806299,3.3495024 12.4289865,3.00729239 12.4289865,2.60779502 C12.4289865,2.20829765 12.5806299,1.86709711 12.8839167,1.58423548 C13.1872035,1.30044849 13.5541337,1.1590387 13.9825872,1.1590387 C14.4109956,1.1590387 14.7779258,1.30044849 15.0822951,1.58230066 C15.1734977,1.66928324 15.2520257,1.76228058 15.3187813,1.86015701 L14.7842856,2.15883367 C14.7450442,2.10049477 14.6973229,2.04610962 14.641122,1.99365929 C14.458762,1.82356376 14.2391902,1.73851599 13.9825872,1.73851599 C13.7259842,1.73851599 13.5064125,1.82356376 13.3240525,1.99361723 C13.1416474,2.16371277 13.0503997,2.36846674 13.0503997,2.60775296 C13.0503997,2.84703918 13.1416022,3.05179315 13.3240525,3.22188869 C13.5064125,3.39198422 13.7259842,3.47703199 13.9825872,3.47703199 C14.2391902,3.47703199 14.458762,3.39198422 14.6411671,3.22188869 C14.697368,3.17048989 14.7450893,3.11513734 14.7843307,3.05675638 L14.7843307,3.05675638 Z M11.4967989,4.05655134 L11.4967989,1.1590387 L12.1182122,1.1590387 L12.1182122,4.05655134 L11.4967989,4.05655134 L11.4967989,4.05655134 Z M11.4967989,0.57947729 L11.4967989,0 L12.1182122,0 L12.1182122,0.57947729 L11.4967989,0.57947729 L11.4967989,0.57947729 Z M8.74867929,4.0496533 C8.79301762,4.17163081 8.86802744,4.28220973 8.97388916,4.38088533 C9.15624916,4.55098086 9.37582088,4.63602863 9.63242391,4.63602863 L9.64401592,4.63594451 L9.64433166,4.63594451 L9.65565305,4.6357342 L9.65628452,4.6357342 L9.6613814,4.63556596 L9.66715485,4.63543977 L9.66814716,4.63539771 L9.67292831,4.63518741 L9.67446188,4.63514534 L9.68000981,4.63493504 L9.68438501,4.63472473 L9.69015846,4.6344303 L9.69173714,4.63434618 L9.71289144,4.63300022 L9.71510159,4.63287404 L9.71852958,4.63257961 L9.72425793,4.632159 L9.735444,4.63110747 L9.73828563,4.6308551 L9.74103704,4.63056067 L9.74667518,4.62997182 L9.74712623,4.62992975 L9.76652143,4.62765845 L9.7706711,4.62711165 L9.77842918,4.62606012 L9.77996276,4.62584982 L9.78397711,4.62526096 L9.78546558,4.62500859 L9.79105862,4.62425149 L9.79236666,4.62404118 L9.80201916,4.62252698 L9.80657478,4.62176988 L9.80752198,4.62155957 L9.81302481,4.62071835 L9.81406223,4.62046598 L9.83399869,4.61672253 L9.83508121,4.61655429 C9.86994747,4.60965625 9.90395673,4.60090752 9.9371992,4.59030809 L9.93986041,4.58942481 L9.94053698,4.5892145 L9.96029303,4.58261089 L9.96038324,4.58261089 L9.97910186,4.5758811 L9.98063544,4.5753343 C10.0938493,4.53285248 10.1973204,4.46803616 10.2909587,4.38071708 C10.4733187,4.21057949 10.5645663,4.00687705 10.5645663,3.7695677 C10.2972734,3.96039941 9.98663442,4.05634103 9.6323788,4.05634103 C9.20397037,4.05634103 8.83699512,3.91493125 8.53370829,3.63211167 C8.23046657,3.34925003 8.07877805,3.00708209 8.07877805,2.60758472 C8.07877805,2.20808734 8.23046657,1.86688681 8.53370829,1.58402517 C8.83704022,1.30023819 9.20397037,1.1588284 9.6323788,1.1588284 C9.98663442,1.1588284 10.2972734,1.25472796 10.5645663,1.44560173 L10.5645663,1.1588284 L11.1860698,1.1588284 L11.1860698,3.76658136 C11.1860698,4.16616285 11.0343812,4.5083308 10.7301021,4.79110831 C10.5125601,4.99396953 10.2625875,5.12402279 9.98068054,5.18139428 L9.98068054,5.18152046 L9.97531303,5.18248787 L9.97012594,5.18349734 L9.96493885,5.18442269 L9.96042834,5.18530597 L9.95600804,5.18618926 L9.95438426,5.18644162 L9.94919717,5.18740903 L9.94396497,5.18837644 L9.94198035,5.18879705 L9.93873278,5.18934385 L9.93819152,5.18942797 C9.84017809,5.206631 9.73819542,5.21537974 9.63242391,5.21537974 L9.63242391,5.21529561 C9.20401548,5.21529561 8.83704022,5.07388583 8.53375339,4.79106625 C8.3047547,4.57747943 8.16235784,4.32986508 8.10629217,4.04940093 L8.74867929,4.04940093 L8.74867929,4.0496533 Z M6.21444812,1.73851599 C5.95784509,1.73851599 5.73827337,1.82356376 5.55591337,1.99361723 C5.37350826,2.16371277 5.28226061,2.36846674 5.28226061,2.60775296 C5.28226061,2.84703918 5.37346316,3.05179315 5.55591337,3.22188869 C5.73827337,3.39198422 5.95784509,3.47703199 6.21444812,3.47703199 C6.47105115,3.47703199 6.69062288,3.39198422 6.87302798,3.22188869 C7.05538798,3.05179315 7.14663564,2.84708125 7.14663564,2.60775296 C7.14663564,2.36842468 7.05538798,2.16371277 6.87302798,1.99361723 C6.69062288,1.82356376 6.47109626,1.73851599 6.21444812,1.73851599 L6.21444812,1.73851599 Z M7.14663564,3.76977801 C6.8793878,3.96060972 6.56865863,4.05655134 6.21444812,4.05655134 C5.78599459,4.05655134 5.41910954,3.91514155 5.11577761,3.63232197 C4.81249078,3.34946034 4.66084737,3.00729239 4.66084737,2.60779502 C4.66084737,2.20829765 4.81249078,1.86709711 5.11577761,1.58423548 C5.41910954,1.30044849 5.78603969,1.1590387 6.21444812,1.1590387 C6.56865863,1.1590387 6.8793878,1.25493826 7.14663564,1.44581203 L7.14663564,1.1590387 L7.76804888,1.1590387 L7.76804888,4.05655134 L7.14663564,4.05655134 L7.14663564,3.76977801 L7.14663564,3.76977801 Z M0,1.1590387 L0.621458344,1.1590387 L0.621458344,1.31033288 C0.806028495,1.20947009 1.01279037,1.1590387 1.24291669,1.1590387 C1.58652749,1.1590387 1.87916951,1.27273015 2.12201548,1.49817824 C2.14109494,1.51597013 2.15805447,1.53283668 2.1750591,1.55062857 C2.19098121,1.53283668 2.20897815,1.51597013 2.22805761,1.49817824 C2.46986616,1.27273015 2.76259839,1.1590387 3.10720151,1.1590387 C3.45085742,1.1590387 3.74349944,1.27273015 3.9863454,1.49817824 C4.22810885,1.72467786 4.3501182,1.99761305 4.3501182,2.31799328 L4.3501182,4.05650928 L3.72870496,4.05650928 L3.72870496,2.31803535 C3.72870496,2.1578242 3.66718157,2.02137763 3.54625475,1.90861153 C3.42537303,1.79487802 3.27900691,1.73855805 3.10720151,1.73855805 C2.93539611,1.73855805 2.78799257,1.79492008 2.66711085,1.90861153 C2.54622913,2.02137763 2.48574317,2.1578242 2.48574317,2.31803535 L2.48574317,4.05655134 L1.86432993,4.05655134 L1.86432993,2.31803535 C1.86432993,2.1578242 1.80388907,2.02137763 1.68192482,1.90861153 C1.56099799,1.79487802 1.41467698,1.73855805 1.24291669,1.73855805 C1.07106618,1.73855805 0.924745171,1.79492008 0.802780926,1.90861153 C0.6818541,2.02137763 0.621413239,2.1578242 0.621413239,2.31803535 L0.621413239,4.05655134 L0,4.05655134 L0,1.1590387 L0,1.1590387 Z" id="Shape" fill="#000000"></path>
                            <path d="M28.9727326,2.83231776 C28.5675984,2.70175976 28.2993131,2.59492429 28.1656667,2.51088599 C28.0321104,2.4268477 27.9429376,2.27946522 27.8995465,2.06785527 C27.85602,1.85620326 27.914341,1.64951447 28.0734267,1.44783097 C28.233595,1.24606335 28.5061652,1.14023734 28.8920846,1.13132037 C29.2781394,1.12341286 29.6726287,1.22928092 30.0745154,1.44879838 L29.7913905,1.94129309 C29.4562595,1.75639201 29.1710147,1.66242726 28.9356111,1.66040833 C28.7001172,1.65843145 28.5675533,1.72669679 28.5379643,1.86512024 C28.5082852,2.00257627 28.5919552,2.11530031 28.79141,2.20131549 C28.9896921,2.28636325 29.2028138,2.3615687 29.4297377,2.42386135 C29.6566615,2.48716347 29.8210697,2.56232685 29.9239545,2.6503189 C30.0258018,2.73835302 30.0872801,2.86689208 30.1074421,3.03694555 C30.1265667,3.20708314 30.1032022,3.36233107 30.0352739,3.50475032 C29.9685183,3.64616011 29.8549436,3.7667496 29.6969855,3.86567757 C29.5378997,3.96359607 29.3173808,4.0239539 29.0352032,4.04670902 C28.7520783,4.06845466 28.3735111,3.97642473 27.8994563,3.76977801 L28.1794237,3.27433902 C28.5187496,3.40981817 28.800837,3.48695843 29.025686,3.50571773 C29.2504899,3.52552856 29.3989309,3.45040724 29.4710991,3.28127912 C29.5443949,3.11215099 29.3778668,2.96274957 28.9727326,2.83231776 L28.9727326,2.83231776 Z M25.1061864,0 L25.7275996,0 L25.7275996,2.65128631 L26.8898684,1.1590387 L27.6322535,1.1590387 L26.74039,2.33288295 L27.6852972,4.05655134 L26.9704712,4.05655134 L26.3182963,2.81053005 L25.7275996,3.58676968 L25.7275996,4.05655134 L25.1061864,4.05655134 L25.1061864,0 L25.1061864,0 Z M24.2301547,3.05675638 L24.7646504,3.35547509 C24.6978948,3.454361 24.6193668,3.54533939 24.5281192,3.63038716 C24.22384,3.91417414 23.8568197,4.0565934 23.4284112,4.0565934 C23.0000028,4.0565934 22.6330727,3.91518361 22.3297858,3.63236404 C22.0264539,3.3495024 21.8748556,3.00733446 21.8748556,2.60783708 C21.8748556,2.20833971 22.0264539,1.86713917 22.3297858,1.58427754 C22.6331178,1.30049055 23.0000028,1.15908076 23.4284112,1.15908076 C23.8568197,1.15908076 24.22384,1.30049055 24.5281192,1.58234272 C24.6193668,1.6693253 24.6978948,1.76232264 24.7646504,1.86019907 L24.2301547,2.15887573 C24.1909584,2.10053683 24.1431921,2.04615168 24.0869911,1.99370135 C23.9045409,1.82364788 23.6850143,1.73860012 23.4283661,1.73860012 C23.171718,1.73860012 22.9521914,1.82364788 22.7698314,1.99370135 C22.5873812,2.16379689 22.4962237,2.36855086 22.4962237,2.60783708 C22.4962237,2.84712331 22.5873812,3.05187728 22.7698314,3.22197281 C22.9521914,3.39206834 23.171718,3.47711611 23.4283661,3.47711611 C23.6850143,3.47711611 23.9045409,3.39206834 24.0869911,3.22197281 C24.1432372,3.17048989 24.1909584,3.11513734 24.2301547,3.05675638 L24.2301547,3.05675638 Z M20.942623,4.05655134 L20.942623,1.1590387 L21.5640362,1.1590387 L21.5640362,4.05655134 L20.942623,4.05655134 L20.942623,4.05655134 Z M20.942623,0.57947729 L20.942623,0 L21.5640362,0 L21.5640362,0.57947729 L20.942623,0.57947729 L20.942623,0.57947729 Z M20.6318938,1.73851599 C20.3752908,1.73851599 20.155719,1.82356376 19.973359,1.99361723 C19.7909088,2.16371277 19.6997514,2.36846674 19.6997514,2.60775296 L19.6997514,4.05650928 L19.0783381,4.05650928 L19.0783381,1.15899664 L19.6997514,1.15899664 L19.6997514,1.44576997 C19.9669541,1.2548962 20.2777284,1.15899664 20.6318938,1.15899664 L20.6318938,1.73851599 L20.6318938,1.73851599 Z M17.2139631,1.73851599 C16.9573601,1.73851599 16.7377884,1.82356376 16.5554284,1.99361723 C16.3729782,2.16371277 16.2817305,2.36846674 16.2817305,2.60775296 C16.2817305,2.84703918 16.3729782,3.05179315 16.5554284,3.22188869 C16.7377884,3.39198422 16.957315,3.47703199 17.2139631,3.47703199 C17.4706112,3.47703199 17.6901379,3.39198422 17.8724979,3.22188869 C18.0549481,3.05179315 18.1461055,2.84708125 18.1461055,2.60775296 C18.1461055,2.36842468 18.054903,2.16375483 17.8724528,1.99365929 C17.6900928,1.82356376 17.4705661,1.73851599 17.2139631,1.73851599 L17.2139631,1.73851599 Z M16.2817305,4.05655134 L15.6603173,4.05655134 L15.6603173,0 L16.2817305,0 L16.2817305,1.44581203 C16.5490234,1.25493826 16.8597075,1.1590387 17.2139631,1.1590387 C17.6423715,1.1590387 18.0082192,1.30044849 18.3115511,1.58423548 C18.6159205,1.86709711 18.7675188,2.20829765 18.7675188,2.60779502 C18.7675188,3.00729239 18.6159205,3.3495024 18.3115511,3.63232197 C18.0082192,3.91514155 17.6423715,4.05655134 17.2139631,4.05655134 C16.8597075,4.05655134 16.5490234,3.96060972 16.2817305,3.76977801 L16.2817305,4.05655134 L16.2817305,4.05655134 Z" id="Shape" fill="#ED1C24"></path>
                        </g>
                    </g>
                </g>
            </g>
        </g>
    </g>
</svg>